<svg width="88" height="40" viewBox="0 0 88 40" fill="none" xmlns="http://www.w3.org/2000/svg">
<path fill-rule="evenodd" clip-rule="evenodd" d="M23.7071 13.2929C24.0976 13.6834 24.0976 14.3166 23.7071 14.7071L18.4142 20L23.7071 25.2929C24.0976 25.6834 24.0976 26.3166 23.7071 26.7071C23.3166 27.0976 22.6834 27.0976 22.2929 26.7071L16.2929 20.7071C15.9024 20.3166 15.9024 19.6834 16.2929 19.2929L22.2929 13.2929C22.6834 12.9024 23.3166 12.9024 23.7071 13.2929Z" fill="#18191F"/>
<path fill-rule="evenodd" clip-rule="evenodd" d="M64.2929 13.2929C63.9024 13.6834 63.9024 14.3166 64.2929 14.7071L69.5858 20L64.2929 25.2929C63.9024 25.6834 63.9024 26.3166 64.2929 26.7071C64.6834 27.0976 65.3166 27.0976 65.7071 26.7071L71.7071 20.7071C72.0976 20.3166 72.0976 19.6834 71.7071 19.2929L65.7071 13.2929C65.3166 12.9024 64.6834 12.9024 64.2929 13.2929Z" fill="#18191F"/>
</svg>
